# xmcd CD database file
#
# Track frame offsets:
#	150
#	23602
#	49260
#	80825
#	103423
#	121729
#	143639
#	164294
#	216623
#	233520
#	248195
#	277613
#	303305
#
# Disc length: 4279 seconds
#
# Revision: 0
# Processed by: cddbd v1.5.2PL0 Copyright (c) Steve Scherf et al.
# Submitted via: CDex 1.51
#
DISCID=ad10b50d
DTITLE=Tom Waits - Live In Stockholm [CD2)
DYEAR=1999
DGENRE=Blues
TTITLE0=Shore Leave
TTITLE1=Pony
TTITLE2=Filipino Box Spring Hog
TTITLE3=Come On Up To The House
TTITLE4=House Where Nobody Lives
TTITLE5=Singapore
TTITLE6=The Heart Of Saturday Night
TTITLE7=Goin' Out West
TTITLE8=I Can't Wait To Get Off Work
TTITLE9=Picture In A Frame
TTITLE10=Who Are You
TTITLE11=Heartattack And Vine
TTITLE12=Time
EXTD=YEAR: 1999
EXTT0=
EXTT1=
EXTT2=
EXTT3=
EXTT4=
EXTT5=
EXTT6=
EXTT7=
EXTT8=
EXTT9=
EXTT10=
EXTT11=
EXTT12=
PLAYORDER=
